<svg xmlns="http://www.w3.org/2000/svg" width="100.885" height="30.789" viewBox="0 0 100.885 30.789">
  <g id="avis-vector-logo" transform="translate(-0.001)">
    <path id="path14" d="M97.906,3.048v-.8h.458c.265,0,.563.076.563.384,0,.34-.33.418-.625.418ZM97.4,4.633h.507V3.457h.37l.651,1.176h.614L98.783,3.4a.751.751,0,0,0,.65-.76c0-.6-.52-.825-1.059-.825H97.4V4.633Zm-1.132-1.4a2.111,2.111,0,1,1,2.1,2.112A2.107,2.107,0,0,1,96.267,3.236Zm-.4,0a2.507,2.507,0,1,0,2.5-2.493A2.473,2.473,0,0,0,95.87,3.236ZM59.434,30.044h7.117V.742H59.434ZM56.6.742h-7.82L41.992,21.917,35.083.742H27.138l11.09,29.3H45.3L56.6.742h0Zm-25.143,29.3L19.472.742H12.422L0,30.044H7.829l2.148-5.751H21.322L23.6,30.044ZM19.374,18.624H12.01L15.731,8.566l3.643,10.057ZM88.633,8.054a7.637,7.637,0,0,0-5.385-2.221c-1.821,0-4.1.623-4.1,2.941,0,1.942,1.74,2.6,4.514,3.474,3.972,1.283,9.1,2.941,9.1,8.776,0,6.744-5.422,9.766-11.214,9.766-4.181,0-8.4-1.53-10.968-4.221l4.339-4.453a9.281,9.281,0,0,0,6.628,2.839c2.15,0,4.055-.831,4.055-3.187,0-2.235-2.237-2.982-6.084-4.229-3.721-1.2-7.488-3.057-7.488-8.35C72.034,2.689,77.91,0,83.37,0a14.669,14.669,0,0,1,9.6,3.6l-4.34,4.457" fill="#d4002a"/>
  </g>
</svg>
